<?xml version="1.0" standalone="no"?>
<!DOCTYPE svg PUBLIC "-//W3C//DTD SVG 20010904//EN"
 "http://www.w3.org/TR/2001/REC-SVG-20010904/DTD/svg10.dtd">
<svg version="1.0" xmlns="http://www.w3.org/2000/svg"
 width="256.000000pt" height="256.000000pt" viewBox="0 0 256.000000 256.000000"
 preserveAspectRatio="xMidYMid meet">
<metadata>
Created by potrace 1.14, written by Peter Selinger 2001-2017
</metadata>
<g transform="translate(0.000000,256.000000) scale(0.100000,-0.100000)"
fill="#000000" stroke="none">
<path d="M620 2535 c-235 -48 -430 -198 -535 -410 -83 -166 -80 -137 -80 -855
0 -719 -3 -687 82 -860 39 -81 60 -109 142 -191 82 -82 110 -103 191 -142 162
-80 132 -77 860 -77 728 0 698 -3 860 77 81 39 109 60 191 142 82 82 103 110
142 191 85 173 82 141 82 860 0 719 3 687 -82 860 -39 81 -60 109 -142 191
-82 82 -110 103 -191 142 -172 85 -135 81 -835 83 -484 2 -634 0 -685 -11z
m230 -1055 l150 -200 -150 -200 -150 -200 -70 0 c-39 0 -70 3 -70 7 0 3 65 93
145 200 l145 193 -150 200 -150 200 75 0 75 0 150 -200z m1157 150 c66 -28
143 -108 169 -175 12 -32 19 -75 19 -120 0 -92 -25 -156 -87 -221 -68 -72
-131 -98 -233 -98 -62 0 -92 5 -132 23 -66 29 -143 110 -169 176 -25 67 -25
173 0 240 21 54 93 138 141 163 91 47 200 52 292 12z m-457 -700 l0 -50 -225
0 -225 0 0 50 0 50 225 0 225 0 0 -50z"/>
<path d="M1806 1546 c-134 -50 -190 -190 -127 -314 39 -76 108 -116 196 -116
129 0 219 90 219 219 0 63 -17 109 -58 153 -52 58 -158 84 -230 58z"/>
</g>
</svg>
