<?xml version="1.0" standalone="no"?>
<!DOCTYPE svg PUBLIC "-//W3C//DTD SVG 20010904//EN"
 "http://www.w3.org/TR/2001/REC-SVG-20010904/DTD/svg10.dtd">
<svg version="1.0" xmlns="http://www.w3.org/2000/svg"
 width="256.000000pt" height="256.000000pt" viewBox="0 0 256.000000 256.000000"
 preserveAspectRatio="xMidYMid meet">
<metadata>
Created by potrace 1.14, written by Peter Selinger 2001-2017
</metadata>
<g transform="translate(0.000000,256.000000) scale(0.100000,-0.100000)"
fill="#000000" stroke="none">
<path d="M380 2544 c-87 -23 -159 -64 -224 -129 -64 -63 -72 -74 -105 -140
-52 -106 -51 -87 -50 -1003 l0 -852 26 -72 c62 -174 174 -279 358 -336 11 -4
405 -8 875 -9 934 -3 906 -5 1028 55 57 28 182 137 182 158 0 7 3 14 8 16 13
5 55 101 70 158 4 14 7 417 7 895 0 839 -1 872 -20 925 -10 30 -19 57 -20 60
0 3 -17 30 -36 60 -63 96 -164 173 -269 206 -14 4 -32 10 -40 13 -8 3 -402 6
-875 7 -729 2 -868 1 -915 -12z"/>
</g>
</svg>
